<mxfile host="65bd71144e">
    <diagram id="HIP3nbAZw_EuaXWnEj3U" name="Page-1">
        <mxGraphModel dx="808" dy="683" grid="1" gridSize="10" guides="1" tooltips="1" connect="1" arrows="1" fold="1" page="1" pageScale="1" pageWidth="850" pageHeight="1100" math="0" shadow="0">
            <root>
                <mxCell id="0"/>
                <mxCell id="1" parent="0"/>
                <mxCell id="7" value="http://ics2o.mths.ca" style="swimlane;whiteSpace=wrap;html=1;" parent="1" vertex="1">
                    <mxGeometry x="70" y="40" width="780" height="480" as="geometry"/>
                </mxCell>
                <mxCell id="8" value="" style="shape=image;verticalLabelPosition=bottom;labelBackgroundColor=default;verticalAlign=top;aspect=fixed;imageAspect=0;image=data:image/jpeg,/9j/4AAQSkZJRgABAQAAAQABAAD/2wBDAAgGBgcGBQgHBwcJCQgKDBQNDAsLDBkSEw8UHRofHh0aHBwgJC4nICIsIxwcKDcpLDAxNDQ0Hyc5PTgyPC4zNDL/2wBDAQkJCQwLDBgNDRgyIRwhMjIyMjIyMjIyMjIyMjIyMjIyMjIyMjIyMjIyMjIyMjIyMjIyMjIyMjIyMjIyMjIyMjL/wAARCAEsAyoDASIAAhEBAxEB/8QAHAABAAIDAQEBAAAAAAAAAAAAAAcGBQgEAwIB/8QAURAAAQMCAgQHCwUPAgYDAQAAAAECAwQFEQYxEiEHUUFhgXETk5EXVSLRsdIWFFIVocEyQpKUU2KipFQjN3KCg7MzZcLi4SQ0stPw8UNWY6P/xAAZAQEAAwEBAAAAAAAAAAAAAAAAAwQCAQX/xAAwEQEAAgIBAwMCAwgDAQAAAAAAAQIDEQQSMSFRQRMUoSKRMgVxgbHRUmEVQvAj4f/aAAwDAQACEQMRAD8An8AAAAAAAAAAAAAAAAAAAAAAAAAAAAAAAAAAAAAAAAAAAAAAAAAAAAAAAAAAAAAAAAAAAAAAAAAAAAAAAAAAAAAAAAAAAAAAAAAAAAAAAAAAAAAAAAAAAAAAAAAAAAAAAAAAAAAAAAAAAAAAAAAAAAAAAAAAAAAAAAAAAAAAAAAAAAAAAAAAAAAAAAAAAAAAAAAAAAAAAAAAAAAAAAAAAAAAAAAAAAAAAAAAAAAAAAAAAAAAAAAAAAAAAAAAAAAAAAAAAAAAAAAAAAAAAAAAAAAAAAAAAAAAAAAAAAAAAAAAAAAAAAAAAAAAAAAAAAAAAAAAAAAAAAAAAAAAAAAAAAAAAAAAAAAAAAAAAAAAAAAAAAAAAAAAAAAAAAAAAAAAAAAAAAAB5e0QIuCzR4/tIPaYPv0f2kDm4eoPL2mD79H9pB7TB9+j+0gNw9QfDJGSY6j2uw04LifYdAAAAAAAAAAAAAAAAAAAAAAAAAAAAAAAAAAAAAAAAAAAAAAAAAAAAAAAAAAAAAAAAAAAAAAAAAAAAAAAAAAAAAAAAAAAAAAAAAAAAAAAAAAAAAAAAAAAAAAAAAAAAAA8qiZKemlnd9GNivXmTE9TD5qqPZsq3SXHBfZ3tReVyaqec5M6jbNp6azKAnOV7lc5cVVcVU/DustN7ZfbfTKmKS1EbV6FcmJsH7NB95j+yhTx4+t43H405omd601uBsj7NB95j+yg9mg+8x/ZQk+n/wArH+vn+77I+3Tf8rdP24/M4kY+GRsjx1GNbjpwTA+yelemul/Dj+OkU9AAGkgAAAAAAAAAAAAAAAAAAAAAAAAAAAAAAAAAAAAAAAAAAAAAAAAAAAAAAAAAAAAAAAAAAAAAAAAAAAAAAAAAAAAAAAAAAAAAAAAAAAAAAAAAAAAAAAAAAAAAAAAAABU940/U5OqGffpI2fja3+JbCP8AevPq2igp/vk6v+y3D/IxknVJQcmdYrSp2Qaf2jOdDinix68i8zVw+XAnE17sd8qsv17qykZC6VY1jTrWqqIiqm1MFTbsLEm8+/oqKsdEvIsTtv4xBiyVrGpUeLyMeKmrd0xAjGg3ryI5G3G2tVvG+nfgqfuu8pe7Pf7bfYFkoKlsionjRrse3pT59BPXJW3Zfx8jHk8VlkwAbTAAAAAAAAAAAAAAU3Ne8qw5TmWlnfJVVyJitPToiqzg1lXYnn5DIZ4vz8tZPr7lCqJUMYjIcUx8dyo1Fw5MceYgbIGS5s+XuplramZtJCqSVMyLjJI5yrgiKvGuCqq7dHKYtaYnUIcmSYmK17r9T7+bc+ZqVNkqool0vjma9U5lRPOSTYcw2vMtvSttdU2eLHByaHMXgcmlFKVctyuWamgdFQrU0dSieJN1qvRV/CaulOjAi3Jlzr8jbwo6OpVWNWo9jrIkXFqorsMeXBdqL5TPVas/iY68lJjr7S2bABKsgAAAAAAAAAAAAAAAAAAAAAAAAAAAAAYfMOZ7TlahSrutUkTXYpHGiYvkXga3j6dCcZmDVy81tw3jbwOrgdrLUzdTStcq6scSKuC9xFcvOYvbSLLk6I8d5SLLv6t7ZlSGx1L4sdjnzNa7uIi+cuWVN4lhza7qKSV8FbhitLUIjXKnC1dDubbyGFoty2VoKBsNUlVU1GHjT9crFx5GpsROnHnIlzplWr3fZlp1pKqR0TsJ6Op0PRWroX8JFw7qdBmZtXzKKb5aebdm0AMNlS9esWVrddVREfURIr0TQj0XVdh+8imZJVmJ3GwAB0AAAAAAAAAAAAAAAAAAAAAAAAAAAAAAAAAAAAAAAAAAAAAAAAAAAAAAAAAAAAAAAAMFmDKtDmSSmdXS1DUp0cjWxOREXWwxxxReBDOg5MRMalm1YtGrR4U9N2uXURE6upXlWZTwqd19klb+gnq4H8S66OTuKnzl3Bn46eiOePin/jCEcx5FuVgjdUo5tVRou2WNMFb+03i+Ur9DX1NtrI6ujmdFNGuKOavyLwpyGxj2NkY5j2o5rkwc1UxRU4FIGzbaG2TMlVSRJhAqpJEnA123DmXFOYr5cfT5h53K48YtXp2THlq+xZhssVaxEbJ9CZifUemlPMvOZgirdTWPbdK+hx8SSFJcOBWqif5fISqWMduqu3ocfJOTHFp7gANpwAAAAAAAAAAUrevbpbju9uCQNVz4FZPqpxta7xu4mK8xHe5XNFDa6yts9dMyD2xzZIJHrg1XpiitVeFUVMOjDSqE8Oa17Va5EVqpgqKmKKhCGcdy9WlbLWZYWOSB663sUj9V0a8DXLsVOlUw5SO0TvqhXy1tFovVMtwuVFaqKStr6mKnpo0xdJI7BP8AdeRDWWSZ+d95yS0sTkbX1zVY1U2tjRU2rhwNTFec6Yd12d6uSOF9rkYxNiOmqGI1ifa8xMG77dvT5Oa6tqpWVV1kbqrI1F1Im8bW46ceNfNtx5O7z2ZnryzETGoXwA8Kysp6Cjmq6uVsNPCxXySO0NamlSVae5Vb/vEyzlxzoqu4tlqW6aemTrHovAuGxq9KoRFnrexcL7LLQWWSSitiKrVkaurLOnCq6WpyJz8CUC3Wyuu1W2kt9JNVTu2pHExXLhw8icpFbJ7Qq35HnVExV2/qBrlbb7FI9OJ9ROjPxURfOY3v83TwLR9q44rXuQzFVxo+vqaSgRfqK5ZHp0o3Z8pm03Apq7cy+NyUOxP/AOhz/wBJZ3nl8Uu/uRHIlZYGqnG6Gpww5lb85dst70cuZlqoqOKSelrJV1WQ1EeGuvAjkxTuqhHlfuIu0TVWgu9JUqnFNG6JV7msdO7Td9ebNnv2q80DoY6OFz4pMUcx73eKmCps0K5eFDsTfflqts0WiLJvABKtAAAAAAAAAAAAAAfiqjUVVVERNKqfpSt49+W2WZKCB+FRW4tVUXa2NPpd3R3TNrdMbljJeMdZtPsrV93j3J12lbaJmR0bF1GKsaOV+H1tqcZIuXkui2iKS8TI+sk8dzUYjerRdDdnHwkW7vLEl2vvtUzcaaiwkVFTY5/1U+RV5uUmcjxdU/ilV4nXfeS89w1Yy5WLkfeLTy3Fi4UFS+GfBNqIqOYrkTj2LinCbTkdbwt2EObJfiVuljprqjUa/XTxJ0TRrYbUVNGPBs6N3iZ8wnzUm2pr3hfaStpa+jjq6Sojmp5G6zJY3IrVTpIC3y5nob7e6Kht8zJ47e16PmYuLVe9W4oi8eCNTbwqpiJN2Gd4HOgbaZXMVdvV1Eeq78bzl0yXuZmgrYbhmZ0WrE5Hsoo3a+sqe+ujDkTHHh4jMza3jSO1r5I6daX/AHc2+a17vrPSztVsnVLKrV0pruc9E7jjJ5kv0GWbBU3ipiklhp9TWZFhrLrORqYY7NLjLaCl72f1ZXj+D/OYbnxCefw08e0K9397F4LuP4npDv72LwXcfxPSIDJO7xeZ/wA/tHbS/wDbIoteeyrXLlt2W7v72LwXcfxPSHf3sXgu4/iekVHvF5n/AD+0dtL/ANsd4vM/5/aO2l/7Z3eRrqz+i7UG+yy3C401HHbbg19RK2JrnIzBFcqImPjcpJpBNo3LZjoL1Q1ktbanR09RHK9GyyYqjXIq4eJp2E7G6Tb3TYpvMT1gANpQAAAAAAAAAAD8c5GtVzlRETaqqc9fJUQ2+plpY2yVDI3OjY7Q5yJsRSBrtmG63uRXV1XI9irikSLgxvQ1NnzkeTJFFbkcmMOvG5lNVVmqw0blbNdaVHJpRj9dU+zic7c75be5GpdYsV4WuRO6qEO0uW71Ws16e11T2Lod1aoi9CrpPysy7eaCJZaq21McaaXrGqonSqaCL5r99Ks8zN36fH8U90tdSV0XWUlTDUM96J6ORO4dBrhR1tVb6htRSTyQTN0PY7BSY8lZuTMVM6nqkayvgbi/DYkjdGsicXKnKbpli3iU+Dl1yz0zGpWwAEy4HFW3a3W3/na6ngXDFGySIir0JpIuzPvAudXUzUdB1lBAxyscuiVypsXFfq9Cd0p8FLWXGdUp4J6mZdqpGxXuXpwILZ43qsKGTnRE9NI2m1c8ZbRVRbrFs4GOX5jvocwWi5PRlHcaaV66GI9EcvMu0hF+Vr8xmu6z1uHJCqmLeySGRWPa5j2rgrXJgqKY+e0d4RfXZa/qr/NsoCI8oZ9qaCojortM6eieqNSV64ui5ceNvm4uAltFRyIqKiouhUJ6Xi8bhew5q5a7q47tHXSWyZLbO2GsRuMTnNRyKqcS48Ogi2g3i3ulusbbo9JKdj9WeLqmtciaF0cacHIS+RLvMsKUdyju0DMIarxZcE2JInHzp5lMZeqI6olDy+usRkpPZK0E0dTBHPC9HxSNRzHJoVF0KehHe7G/LPTS2Wd2L4UWSBV9zHa3mVcedeAkQkpbqjaxhyRkpFoAAaSAAAAAAAAAAAAAAAAAAAAHNBX0lTUTU8NTE+aF2rJG1yazV5UDm4dIADoQ5vPlZJmtjWYa0dMxr8OHFy+ZUJNv2YKHL1C6oq5EV6p+jhRfGkXgTk5eIgm5V890uNRXVK4yzPVzuBOBE5ETBOYr57Rrpefz8sdPR7rduthV+ZKiXBdWOldt5Vc3D5yXilbtrK+3WN9dMxWzVqo5qLxRp9Hu4qvRgXUkxRqifiUmuKNgAJFkAAAAAAAAAAAAAAAAIA3w51kul2fl6ilwoaN2E6tX+rKmlF5G6OnHgQmbNd59X8q3G6IqI+CFVjx0K9djfxlQ1Je98sjpJHK57lVznKuKqq8ZFkt7K3JvqOmGdyhlWszffY7fTL1caJrzzqmKRM4eVeJE4ec2ay9lm1ZXtzaO2UzY2/XkXa+VeFy8fzcRXt1OXI7FkymqHRolXcESoldx6q/QbzNwXpVS8naV1G2sOOKxue4ACROAAAAAAAAAAAAAAAAAAAQPnK6rd80VcyOxijd1MXBqt2Yp0rivOTRfa74bYa6sRcHRQucxfwsPF+XAgO20i3C60lGmOM8zI8eDFUTEr557Vedz7zPTjj3TPkW1Ja8q0qObhLUJ18n72j8XAsp8sa1jGsaiI1qYIicSH0T1jUaX6VilYrHsAA60AAAUvez+rK8fwf5zC6FL3s/qyvH8H+cw5btLGT9EtYjdE0uN0SPF7q/F9wAEq2AAAAAAAAAAAAAAAAGDtmUrPa6qWqhpWvqJJHP6yXxlZiuODeBE7pnAcmIlma1mYmY7A0gHWkR7yMu09sq4LjRxNihqVVsjGpg1r024onFinmMDk+sfRZttr2Kv6SZsLkTjR/i/P8hct61fD7PQ29HIs2uszkT6rcME7uK9wp+TKF9fm23MYi4RSpM5eBGeN50ROcp3jWTw8bNWI5OqesJ4ABceyptbu+objmea51Mi+yyYPWnZs1n8aqvBx7NuKroLXS0dNQwNgpYI4Ym6GRtRqHuDMViOzFcdKTM1juGAzRlilzFb3tdG1laxq9TMibUXiRV40Uz4OzETGpdtWLx027Na5I3xSOjkarXsVWuReJUJq3fXN9yyrE2V2tJSvWBVVdqomCt+RUTmIpzQ1rM03VGoiJ7VJo/aUv8Auox+FXBcF1evbh9kq4fF9PK4e65+n96QTEZntSXnL1ZRo3GRWa0Wz66bU8nOZcFqY3GnrWrFomJa82S5Ps97pK9uP6GRFcicbdDk7iqbCMc17GvaqK1yYoqcaEBZooUt2Z7jTImDWzK5qcDXeMidxUJfyTXLX5RoJHLi+NnUu/dXVT5EQr4J1M1edwbTW1scrAACy9IAMfemXF9rm+FTpFWNTWj1mo5HKn1Vx4TkuTOo2yAIUfvCzPG9zH1TGvauDmrA1FRU5iSsoZjbmKzNlerUq4vEnYnDxOROBfLwGK5a2nUK+LlUyW6Y7rCAfL3tijc97kaxqKrnOXBEROMkWX0CIbxvIusl0n+FzMiokXViR0SOVyJ9ZcU49OBaci3PMF8SWuuVQnsTcWRtSJresdxrjhoTz9CkcZYmdQrU5VL36K7XUAEiyAAAAAPiR6sie9rFerWqqNbpXkNeq+Svhu889U2anrXSOkdiisc1yrj0mxBy1luorjH1dbSQ1DU0JKxHYdGOgjyY+v3VuTx5zRGp1pClLnjMdI1Gsucj2/8A7NbIvdVFU9594WZJmaiVrY0VNqxxNRe7gSLPu9y3O7WSifEq/e5nJ8iqp5N3b5ca5FWCdyJxLMuC9wi+PJ6qv03JjxFvuh2eoqa6pWWeWWed64az3K5yl6ylu9nqJo669RLFTtVHMpnfSk/aTiTk0qSHbsvWi0qi0NBDE9Pr6us/7S4qZM1TDqd2SYuDET1ZJ2/ERGoiIiIiaEQ/QCdfAAAAAAAAAAAAAAAAAABGe/CsdBkmCnaqp7TWMa5OFqNc7zo0gKhplrbhTUrccZ5Wxph+EqJ85N2/lF+B2hcNiVL/APpIcy4qJmi0KuhK2H/rQgyfqUc/nI27ijZDEyKNqNYxqNa1OJE0IfYBOvAAAAAAAABw3m4/CbPVV/Vdb1DNfU1tXW58FwO45bjQQ3O3z0VQrkimbqu1VwXDkOTvXhm29Truj7vt/wBk/K/9A77f9k/K/wDQZjvYWD36ztU9Ed7Cwe/WdqnokOs3qpdPM9Y+39GH77f9k/K/9A77f9k/K/8AQZjvYWD36ztU9Ed7Cwe/WdqnojWb1Onmesfb+jD99v8Asn5X/oHfb/sn5X/oMx3sLB79Z2qeiO9hYPfrO1T0RrN6nTzPWPt/Rh++3/ZPyv8A0Eg26r+IWukrdTq/aIWS6mOOrrNRcMePSVbvYWD36ztU9EtlHSx0NFT0kWt1cEbYmay4rg1MEx7hukX3+JNgjPEz8sqzvIqFhyfMxFw66WOP5db/ABI7yBT+0ZzocU8WPXkXmauHy4F13quVMvUbNmC1SL3GO8pV92TUXNiqultM9U7qJ85FfzlhVz/i5VY/cmQAFl6YAAAAAFL3s/qyvH8H+cwuhS97P6srx/B/nMOW7Sxk/RLWI2j75+TPDsPZyeiauFn73Wb/AABWfZTykFbTHZSxXtXfTCfO+fkzw7D2cnojvn5M8Ow9nJ6JAfe6zf4ArPsp5R3us3+AKz7KeU1129EvzZP7Wxtmzjl/MNY+ktVyjqZ2RrK5jWOTBqKiY7UTjVDOkK7ocqX2xZsqqq6WyelgfQvja+REwVyyRrh3EXuE1ElZmY8p8dptXcgANJAH45Ua1XKuCJtVTE+tVg8MUfaocmYjuzNojvLLgxHrVYPDFH2qD1qsHhij7VB1R6ufJT1j82XByUN0oLm17qGrhqEZgjliejsMdGJ1nWomJ8wAAOh41VTFR0k1VM5WxQsdI9UTHBqJip7HFd6WSustdSRaqST08kTNZcExc1UTHunJ7OW3qdMA7ePltqYpVSuXgSF3zmDuu9SLqnMtNE9ZFTBJajBEbyo1Mce6hg37sswNTFPZHLwJKvzoYq4ZOv8AbGLJPbpHRptV8SpIiJwrq4qnOVrXy67PLyZ+VrzGv4OFG3PMV1cqNlrK2dcVwTFV+ZETuIS/kzKbct0b5J1a+vnT9I5uhie6nzr5CK7Hmq6ZfXVo5I1hVcXRPjRUd0rp+UljK+cKLMkaxonUVrExfA5ccU4Wrxp5hh6d7nu7w/i6tzP4lkABaeoAAAc9bWRW+hnq53asULFe5eREOgi3eRmhtRJ8Eo34xxuxqXtXS5NDObSvL0GL26Y2hz5YxUm0qBVVD6ysnqZP6k0jpHdKripM+722ut+U4HPTCSqcs6ovAuCN+REXnIwynl+TMN6jp1RUpo8H1D+BvB0ro/8ARO7GtYxrGtRrWpgiJoRCHBXz1SpcHHMzOSX0ACy9NDu8+nSLNTJET+tTMcq8qKrfmQsu6qoV9irKdV/p1GtzOanoqYfeuifFbe7DasDkx/eOvdK5Vbd24+Kiwqifb8hWjxmeZTxzJj9/8klAAsvTAABF+8nLHVSLfKOPxHqiVTWpoXQj+fQvLhwlSyzfpcvXmOrbrOhd4k8afWZ5U0oTxPBFU08kEzEfFI1Wva7QqLpQgnNWX5cu3h9MuLqd+L4JF+s3g6U0L/uVctZrPVDy+XinHf5af9lO1PURVdPHUQPR8UjUexyaFRdBQd5OZfZ4PglK/CWVEdUuRfos4m8/HydJh8m52ZZrPWUVaqvbCxZKVF43L9Turj3SmzTVV2uTpX601VUyaETFXOVdCJ8h2+XdfHu7n5fViiK95d2W7DNmG7x0ceLY08aaRPqMTSvTxITxSUkNDSRUtPGkcMTUaxqcSIYfKWXY8u2dsKoi1UuD6h6cbuBORPKvGZ8kxU6Y891ni4Pirue8gAJVoAAAAAAAAAAAAAAAAAAAAAAAAAAAAAAAAAAEbb7aJanI0dQ1NtLVse5eBqo5vnchr3BM+nqI5o9j43I9vSi4obc5jtDL/ly4Wt+H/EwuY1V0NdpavM5EXmNRqiCWlqJaedixzRPVj2O0tci4Ki85BkjztS5NdW23FoKyK4W+mrYFxiqImysXkcmKec6CLNzGa47hZFy/UyIlXRYuhxXbJEq47P2VXDoVCUyas7ja3S3VWJAAdaAAAAAAAxWY62e3ZdrqymcjZoolcxVTHBeg5M6jblp6YmZZUEJ98XMv55H2DPIO+LmX88j7BnkIvnqp/X4vSU2AhPvi5l/PI+wZ5B3xcy/nkfYM8g+ep9fi9JTYCE++LmX88j7BnkHfFzL+eR9gzyD56n1+L0lNgIT74uZfzyPsGeQl6zVMtZY7fVTqjpZqaOR6omGLlairs5zVMkX7JsPIplmYr7KjvVRfgFGuGxKpEx/ccVjdiqJmxyKqJjTPw5drS5by6dZsoukRMepnY9eTS3/IoO76dIM50SKuCSI+Nedq4fKiEV/GWFLN45VZ/cm8AFl6gAAAAAFL3s/qyvH8H+cwuhS97P6srx/B/nMOW7Sxk/RLWI3RNLjdEjxe6vxfcABKtgAAAADzmar4JGtTFVaqInMQn3v80eDPyiL0icAYvji/dBm49c2ur2Qf3v8ANHgz8oi9Id7/ADR4M/KIvSJwBH8FUH0GP1lSt3lhudjgr23Km6hZXMVnjtdjgi4/RVeEuoBLWvTGoW8eOMdYrAADTYAAAAAj7eBlGnmoZbzQxJHURJrTsYmCSN43YcKaejEjKhrZ7dXQ1lM9WTQuRzXf+cXEbBXbUWz1ySYans8mtjwaq4mupUzREW3DyObSKXi1fG2xdsro7nbKauiTBs8bXonBim1ObQdZWsg6y5Jt2tjjhJp4OsdgWUtVncRL1MduqkWn3gAKXnXOrLJG6goHNfcXptdpSFF41/C4E515eWtFY3JkyVx16rPjPOcm2eF1ut8iLXyJg97V/otX/Lg4NPARTQUNVda+OkpWLLUSuwRPOqqIIKu617YYWyVFVO/hxc5V0qq/LiTTlHKkGW6HF+rLXSp+llRNH4LeTz9zCtETltv2eXEX5eTc+Ij/AL+bsy3l+ny7am0sOD5XeNNLhte7ycCGYALURERqHrVrFY1HYAB11FW9dU+K29MdqQOVU/eOrdKi6t3XDYqwpj9sxO9CoSXNMcSLshpmtVOVVcvmVCxbqadW2WuqMP6lQjPstRf8itHnM8unnmT/AB/kv4ALL1AAACtZ6t9DW5YqZK17Ylp06yKVU2o7iTn0f+iykN7wMz/GLj7BSyY0VM5UxauyR/GvQmhOdeMjy2iK+VflZK0xzv3U0vm6+joJ7tUVE70dWQsRYI3JxLsc5OVNic5gbXlStuthrrrCmDKb6DMNsuG12HQnd0GLttwqLVcYK6ldqzQu1k4F4UXkVNhUr+GYmXk45+K9b2jw2MBj7Ndqe92uGupl8WRPGbjtY7javQZAvRO/L3YmJjcBX87VVRRZQrqilmfDMzq9WRi4KmMjUXb0KpYDiu1rp7zbJrfVK9IZdXW1FwXYqOT5UFo3ExDOSJmkxHdB3rVf/DFZ2qj1qv8A4YrO1UkvvYWD36ztU9Ed7Cwe/Wdqnolb4snq8z6Xkev3Rp61X/wxWdqo9ar/AOGKztVJL72Fg9+s7VPRHewsHv1nap6I+LJ6n0vI9fujT1qv/his7VR61X/wxWdqpJfewsHv1nap6I72Fg9+s7VPRHxZPU+l5Hr90aetV/8ADFZ2qj1qv/his7VSS+9hYPfrO1T0R3sLB79Z2qeiPiyep9LyPX7o09ar/wCGKztVHrVf/DFZ2qkl97Cwe/WdqnojvYWD36ztU9EfFk9T6Xkev3Rp61X/AMMVnaqPWq/+GKztVJL72Fg9+s7VPRHewsHv1nap6I+LJ6n0vI9fujT1qv8A4YrO1UetV/8ADFZ2qkl97Cwe/WdqnojvYWD36ztU9EfFk9T6Xkev3Rp61X/wxWdqo9ar/wCGKztVJL72Fg9+s7VPRHewsHv1nap6I+LJ6n0vI9fuz+XJ5anLdtnmkdJLJTsc97lxVVw0qZQ5qGjit1BBRw63VQMRjNZcVwThOksx2epWJisRIADrQAAAAAAAAQjvhyLIypfme2wq6J//ADsbE+gqf/JhwLx8C7eNcJuPl7WvYrHtRzXJgqKmKKhm1dxpjJSLxqWnNvuFXaq+GuoZ3wVMLtaORi7UXychsFk7e3aL7DHTXaSO3XFEwVZHYQyLwtcujoXuqYDOm5jrpZK/K+oxXeM6he7BMfwHLo6F2cvEQ/cbVX2ipWmuNHPSzJ9SZitVeVMdKcpD+KkqcTfDLcNjmvYj2ORzXJiiouKKh9GoFvzBeLTst10rKVvuwzOa1elEXBTLpvIzgkas+PVWCrj9XHu4Ym/lhNHJj3htQckV0oJ6+SghrYJKuNuu+BkiK9jccMVRNG1TVGuzXmC5tc2tvVfMxdLHTu1fs44Fo3POroM9001PSzy00jHw1EkbFVrGqmKK5dCeMjdIjJudEcjqtERDZEAEqyHnNBFUwuhniZLE9MHMe1HNcnKinoAMZ6uWPwNbvuVnkHq5Y/A1u+5WeQyYOdMejPRX0j8mM9XLH4Gt33KzyD1csfga3fcrPIZMDpj0OivpH5MZ6uWPwNbvuVnkHq5Y/A1u+5WeQyYHTHodFfSPyYz1csfga3fcrPIZCONkMTIomNZGxqNaxqYI1E0IicSH2BqIdisR2hiczUK3HLNxpUTFzoXK1OFzfGT5UQgu0Vvw+8UVZjgkMzHr0Iu35DYogDNFrWz5jrKRG6saPV8X7DtqefDmIM8a1Z5/PrMTXJCfkVHIioqKi6FQ/SvZJuiXXKtJIrsZYW9RJ0t2J3UwXnLCTxO42v0tFqxaPcAB1oAAApe9n9WV4/g/zmF0KXvZ/VleP4P85hy3aWMn6JaxG6JpcbokeL3V+L7gAJVsAAAAAAAAAAAAAAABy3G4U1roZa2sk6uCLDWdhjhiuCbOlT9oq+kuNOk9HUxTxL9aN2Pd4Cq7x6a51ljhgoKaSeLrNefq9rkRE2bNKpiuOzgIigqaqhn16eaanmauGtG5WOTuEN8s1trSlm5U4snTMeGyAILgz3mWnajW3N7mp98jY5e6qYnjWZxzBXxrHPdJtRUwVI0SPFOXVRDnz19Gf9hj12lfN4Wa6emt8tno5Ukqpk1ZlauKRs40XlXRhwcxFcEElTURwQsV8sjkaxqaVVdCH3SUVVcKhsFJBJPM7Q1jcVJXyXkf4K5LjcdV9cqeJGm1IceXjd5iLVsttqusnKyb14Wqz29tqs9JQtVF6iJGKqca8a864ncDC5rrai3ZXr6qlkWOeNiar0THDFyJ85b7Q9eZild+0MFnXO7bO11vtz2vuCp479KQp87uTiIro6OtvNxSCnY+oqpnKq7cVVdKqqr51OV73SPc97lc5y4ucq4qq8J609VU0j1fTVEsLlTBVjerVVOYpWvNp3Lw8uect927JsyplKly3S664S10jcJZuD8FvAnnLIa7/Grr4TrO3d5R8auvhOs7d3lJYzViNRC3Tm0pHTWvhsQDXf41dfCdZ27vKW/dxca6qzO6OoraiZns711ZJXOTHFvEqmq5omdaS4+bW9or090sgGLzDc0s9grK5XIj441SPHjeuxvyqhNM6ja7aYrEzKFs2VqXDNVxqEXFvXKxq8KN8VPMS1kWhWhyhQtcmD5WrM795cU+TAhm02+S73eloWKuvPIjVXTgnGvMmK8xsNFGyGJkUbUaxjUa1OBE0FfDG5mzzuFE2vbJL7ABZekAGNvl4p7FaZq+o2oxMGM43uXQ1P8AzhOTOvLkzFY3Kt7wsz/Cbf8ADaV+FZUt8ZyLtjj416V0JzkW2e1VF6usFBTJ48rsFdxNbxqvQh5XCvqLpXzVtU/XmmdrOXg4ETkRNhLW77Lfwi1+31LMKyrai4Km2OPiTpXSvNwFXzlv/h5Mb5Wb/Efy/wDq0263wWu3wUVM3Vihbqt4V4VXlVdpD+fMtfA7stTTswoapVczBNjHcbfnTk6CajHXy0U99tM1BUJgj0xY/DaxyaFQnyU6q6X+RgjJj6Y7x2RLkTM3wK69RUvVKCpVGyY6GO4nfMvJ0E1IuKYpoNcq+hnttfNR1LFZNC5WuT5+glPd1mf4hRfCap//ABVM39E5V/qR8HSnmw5SLDfX4ZVOFm1PxW/h/RewAWXpgAAAAAAAAAAAAAAAAAAAAAAAAAAAAAAAAAAAAAeFVR01dCsNXTQ1ES6WSsR7V5lPcAVOq3aZNrHq6Ww07VX7y58Sdxioc/emyR4E/KpvTLoDnTHox0V9FbpN3+UqFyOhsFEqpoWVnWf9WJYYoYoImxQxsjjamCNY3BE5kPsDUQ1FYjsAA66AAAAAAAAAAAAABQd5tiWrt8d2gbjLSpqy4aVjVdPMvnUvx8SxsmifFI1HRvarXNXQqLpQzevVGkeXHGSk1lEO7e+pbr06gmfhBW4Naq6EkT6Pd2p3CYSF71kS70F4kbbaWaopcdeGRmlqcC8qf7kpZdq6+rs8K3Olkp6xiakiPTDXVPrJ0+fEiwzMfhlV4c3rvFeOzLAAnXgAADwq6Olr6V9NW00NTTvw14pmI9jsFxTFF2LtRF5j3AGF9T8sf/XLR9wxeiZoAORER2AAHQAAAAAAAAAAAAAAAA4K6yWu57a2gp53e89ia3d0neBMbcmImNSqz93uWnu1koHM5Gzvw859w5Ay1C/W+H66po15XqncxwLMDPRX0R/Bj/tj8nNR0FJb4uqo6WGnZ7sTEbj3DpANJIiI8QHlPTw1ULoaiKOaJ30mSNRzV6UU9QHWM9XLH4Gt33KzyD1csfga3fcrPIZMHOmPRnor6R+TGerlj8DW77lZ5B6uWPwNbvuVnkMmB0x6HRX0j8mM9XLH4Gt33KzyHtS2i20M3W0lvpKeTDV14oWsXDgxRDtA1B0VjtARZvPvqT1UNmgcishXrZ8PfVPFTmRcedOAka61VRR2yaakpX1NSjf0UTU+k7ix5ONSIaPJmYLteWrcKWeFs0ivnqJMNmO1V6eAizTOumFXmWtNfjpHdYd19iVqTXudmGKLFT4/jO+buklHjS0sNFSRUtOxGQxNRjGpxIh7ElK9MaT4cUYqRUABpKHNV2+jr2tbWUkFS1q4tSaNHoi8mKHSA5MRPdjEy7ZEVFSz29FTaipTM8hkwDmogisR2gAB11xVNntlbMs1VbqSeXDDXlga52HSqHzBZLTSztmp7ZRQyt+jJHTta5OLYqId4OahnprvegAHWgAAAAAAMbfL3SWC2vraty4JsYxv0nu4EOTOvMuWtFY3LIucjWq5yoiImKqvEYWpzdl+kerJbtTayLgqMdr4fZxIfv8Amq55gmd7RMsdNj4tPGuDE6eFeVT8t+Ur9dIUmpbbK6JUxR71RiKnCmsqY8xBOaZnVYefbm2tOsVdpggzjl6pk1I7tTo78NVYndciGaY9sjEexyOa5MUci4oqEA3LLF6tEfW1tvljjTS9uD2p0q1VRD7sGZ7jl6oR9LKr4FXx6d6+I7yLyoIzTE6tBXnWrbWSuk+gx1lvFLfbZHXUjvEdsc1dLHcaLymRJ4nfmHoRMTG4AAddAAAAAAAAAAAAAAAAAAAAAAAAAAAAAAAAAAAAAAAAAAAAAAAAAAAAAAAAAAAAAAAAAAAAAAAAAAAAAAAAAAAAAAAAAAAAAAAAAAAAAAAAAAAAAAAAAAAAAAAAAAAIQz3fHXjMUsbHqtLSKsUScWKfSdzqncRCZ6+daW3VNQmmKJz05kVTXFVVyqqqqqu1VUr57eIh5/7QvMVike6+busrQ3OV91ro0fTwP1Yo3Jse/Sqrwomzn6CWtBgcmUzKXKFtYxPpRdYvKrlV3zmeJMdemqzxscUxxr3fLmo9qtciK1UwVF0KQxn7LUdiurJ6RmrRVWKtamhjk0t6ONP9iaSp7xqNKnKE8mGLqeRkre7qr8jlGWu6s8vHF8cz7wo+7i9Ot+YEoZH4U9ampguhHp9Ffm50JkNbqWofSVcNTH9OGRsjelFxQ2Pje2SNr2ri1yIqLyKYwW8aQ8C8zSaz7PoAE6+AAAAAAAAAAAAAAAAAAAAAAAAAAAAAAAAAAAAAAAAAAAAAAAAAAAAAAAAAAAAAAAAAAAAAAAAAAAAAAAAAAAAAAAAAAAAAAAAAAAAAAAAAAAAAAAAAAAAAAAAAADmuEC1Vtqqdv0pYXsTpVFQ1yVFRVRUwVDZYhLPVgfZr9LMyNUo6pyyRORNiKv0m8y/IqFfPXxEvP/aFJmIvHskrI1aytyhQq1UV0LVhenArVw82C85YyC8pZrmy1WOxYstHNh1sSaf2m8vnJYo84ZfrYUkZdaaPHS2d6RuTmdgbx5ImNJeNyKWpETPmGcK9niWKHJ1x61URHsRjUXjcqpgftfnXL9vjVzrjFO7DYynXrFXubO6pFmac11eaKlrUjWKjixdHCm395y8OHcGTJWI0cjkUrSYidzKuGxNocr7LQPXS6njVfsoa7JtXBNJshSRLBRwRLpZG1q8yYEfH7yr/ALP72ewALL0wAAAAAAAAAAAAAAAAAAAAAAAAAAAAAAAAAAAAAAAAAAAAAAAAAAAAAAAAAAAAAAAAAAAAAAAAAAAAAAAAAAAAAAAAAAAAAAAAAAAAAAAAAAAAAAAAAAAAAAAAAADiulro7xQvo62FJInbeVq8SovEp2gTG3JiJjUohvG7K6Ukjn21zKyD6rVcjZETlx2LzLzFfdlS/tVUW0VmzgiVSfgQzgrPZTtwMczuJ0hO3bvcwVz29bTtpIl0vnciL9lNpmc0WO35Ryn7LAvW11dIjHzvTBytausuCcSYo3ukove2NjnvcjWNRVc5VwRE4SDM5Zg9YL4+WJf+FhTq4OVON3OvyYGL1rjr47oc2LHgx+O8uLLdCtyzJb6XV1kfM1Xp+Cm13yIpsERjutsrllqLzK3xUTqYceNfrL5k51JON4K6rtNwcfTj6p9wAEy6AAAAAAAAAAAAAAAAAAAAAAAAAAAAAAAAAAAAAAAAAAAAAAAAAAAAAAAAAAAAAAAAAAAAAAAAAAAAAAAAAAAAAAAAAAAAAAAAAAAAAAAAAAAAAAAAAAAAAAAAAAAAVbPt0rbTl1tTQzrDMs7WayIi7FReHoOWnUbYveKVm0+y0nHcLpQ2qBZq6qigZxa7truhNK8xCE2cMwzpg+7VKfsO1PNgYlz6isnxe6WeZ64Yqquc5fOQTnj2hRt+0I/41W/N+e5b211Db0fDQLseq7HS9PAnJ3eAwGXrBU5hujKSnRWsTbLKqYpG3h6eBOMzdh3eXW6PZLWtWhpdKrIn6RycjeLn+Ule02eislE2koYUjYm1y6XPXhVeNTNaWvO7I8eDJnt15ez2oKKC20MNHSs1IYWo1qeXl4zpALT1IjUagAAdAAAAAAAAAAAAAAAAAAAAAAAAAAAAAAAAAAAAAAAAAAAAAAAAAAAAAAAAAAAAAAAAAAAAAAAAAAAAAAAAAAAAAAAAAAAAAAAAAAAAAAAAAAAAAAAAAAAAAAAAAAAOG62iivVH7JXxLJDrI9ERytwVOPFOk7gJjbkxExqVdiyLlqF2LbWxV/Dke7zqZejtdBb0wo6Knp+FYo0aq9w6wcisR2hmuOle0AAOtgAAAAAAAAAAAAAAAAAAAAAAAAAAAAAAAAAAAAAAAAAAAAAAAAAAAAAAAAAAAAAAAAAAAAAAAAAAAAAAAAAAAAAAAAAAAAAAAAAAAAAAAAAAAAAAAAAAAAAAAAAAAAAAAAAAAAAAAAAAAAAAAAAAAAAAAAAAAAAAAAAAAAAAAAAAAAAAAAAAAAAAAAAAAAAAAAAAAAAAAAAAAAAAAAAAAAAAAAAAAAAAAAAAAAAAAAAAAAAAAAAAAAAAAAAAAAAAAAAAAAAAAAAAAAAAAAAAAAAAAAAAAAD/2Q==;" vertex="1" parent="7">
                    <mxGeometry x="400" y="70" width="320" height="118.52" as="geometry"/>
                </mxCell>
                <mxCell id="9" value="&lt;font style=&quot;font-size: 21px;&quot;&gt;Formula:&lt;/font&gt;" style="text;html=1;align=center;verticalAlign=middle;resizable=0;points=[];autosize=1;fillColor=none;" vertex="1" parent="7">
                    <mxGeometry x="25" y="60" width="110" height="40" as="geometry"/>
                </mxCell>
                <mxCell id="10" value="&lt;div style=&quot;text-align: start;&quot;&gt;&lt;span style=&quot;background-color: initial; font-size: 14px;&quot;&gt;&lt;font face=&quot;Helvetica, Arial, sans-serif&quot;&gt;(°F − 32) × 5/9 = °C&lt;/font&gt;&lt;/span&gt;&lt;/div&gt;" style="text;html=1;align=center;verticalAlign=middle;resizable=0;points=[];autosize=1;fillColor=none;fontSize=21;" vertex="1" parent="7">
                    <mxGeometry x="25" y="109.25999999999999" width="150" height="40" as="geometry"/>
                </mxCell>
                <mxCell id="11" value="Input fahrenheit:" style="text;html=1;align=center;verticalAlign=middle;resizable=0;points=[];autosize=1;fillColor=none;fontSize=18;" vertex="1" parent="7">
                    <mxGeometry x="25" y="170" width="150" height="40" as="geometry"/>
                </mxCell>
                <mxCell id="12" value="" style="rounded=0;whiteSpace=wrap;html=1;fontSize=18;align=left;fillColor=none;" vertex="1" parent="7">
                    <mxGeometry x="25" y="210" width="190" height="30" as="geometry"/>
                </mxCell>
                <mxCell id="13" value="" style="rounded=1;whiteSpace=wrap;html=1;fontSize=18;fillColor=none;" vertex="1" parent="7">
                    <mxGeometry x="40" y="260" width="120" height="30" as="geometry"/>
                </mxCell>
                <mxCell id="14" value="40°F converted to celsius is -40.00 °C" style="text;html=1;align=center;verticalAlign=middle;resizable=0;points=[];autosize=1;fillColor=none;fontSize=18;" vertex="1" parent="7">
                    <mxGeometry x="10" y="310" width="320" height="40" as="geometry"/>
                </mxCell>
                <mxCell id="15" value="Calculate" style="text;html=1;align=center;verticalAlign=middle;resizable=0;points=[];autosize=1;strokeColor=none;fillColor=none;fontSize=18;fontColor=#0A0A0A;" vertex="1" parent="7">
                    <mxGeometry x="50" y="255" width="100" height="40" as="geometry"/>
                </mxCell>
                <mxCell id="16" value="40" style="text;html=1;align=center;verticalAlign=middle;resizable=0;points=[];autosize=1;strokeColor=none;fillColor=none;fontSize=18;fontColor=#0A0A0A;" vertex="1" parent="7">
                    <mxGeometry x="30" y="205" width="40" height="40" as="geometry"/>
                </mxCell>
            </root>
        </mxGraphModel>
    </diagram>
</mxfile>